<svg height="512pt" viewBox="-35 0 512 512" width="512pt" xmlns="http://www.w3.org/2000/svg"><path d="m37.019531 154.363281c-20.445312 0-37.019531 16.574219-37.019531 37.019531 0 20.445313 16.574219 37.019532 37.019531 37.019532-20.445312 0-37.019531 16.570312-37.019531 37.015625 0 20.445312 16.574219 37.019531 37.019531 37.019531h53.1875v-150.757812zm0 0" fill="#dd9f68"/><path d="m157.972656 455.644531c2.695313 3.136719 5.5 6.175781 8.429688 9.105469 29.199218 29.199219 69.523437 47.25 114.078125 47.25 89.101562 0 161.320312-72.230469 161.320312-161.332031" fill="#dd9f68"/><path d="m335.230469 29.882812v362.203126h-65.492188c2.152344 4.429687 4.679688 8.667968 7.566407 12.664062 3.828124 5.308594 6.019531 11.625 6.019531 18.183594v2.277344c0 16.808593-13.628907 30.4375-30.4375 30.4375h-185.992188c-16.503906 0-29.878906-13.378907-29.878906-29.871094v-395.894532c0-16.503906 13.375-29.882812 29.878906-29.882812h238.476563c16.480468 0 29.859375 13.378906 29.859375 29.882812zm0 0" fill="#405968"/><path d="m92.875 455.648438h-25.980469c-16.503906 0-29.878906-13.378907-29.878906-29.871094v-395.894532c0-16.503906 13.375-29.882812 29.878906-29.882812h25.980469c-16.503906 0-29.882812 13.378906-29.882812 29.882812v395.894532c0 16.492187 13.378906 29.871094 29.882812 29.871094zm0 0" fill="#273c47"/><path d="m37.011719 45.839844h298.214843v325.523437h-298.214843zm0 0" fill="#6adbbd"/><path d="m300.519531 45.839844-263.507812 263.515625v-133.425781l130.089843-130.089844zm0 0" fill="#a6f7e0"/><path d="m335.226562 70.496094v66.71875l-234.152343 234.148437h-64.0625v-2.640625zm0 0" fill="#a6f7e0"/><path d="m37.011719 45.839844h25.980469v325.523437h-25.980469zm0 0" fill="#4fbf9f"/><path d="m37.011719 38.953125h12.628906v339.296875h-12.628906zm0 0" fill="#273c47"/><path d="m309.246094 45.839844h25.980468v325.523437h-25.980468zm0 0" fill="#a6f7e0"/><path d="m322.597656 38.953125h12.628906v339.296875h-12.628906zm0 0" fill="#405968"/><path d="m210.050781 418.886719h-47.855469c-3.476562 0-6.296874-2.816407-6.296874-6.292969s2.820312-6.296875 6.296874-6.296875h47.855469c3.472657 0 6.292969 2.820313 6.292969 6.296875s-2.820312 6.292969-6.292969 6.292969zm0 0" fill="#273c47"/><path d="m210.050781 31.265625h-47.855469c-3.476562 0-6.296874-2.820313-6.296874-6.296875s2.820312-6.296875 6.296874-6.296875h47.855469c3.472657 0 6.292969 2.820313 6.292969 6.296875s-2.820312 6.296875-6.292969 6.296875zm0 0" fill="#273c47"/><g fill="#ef5e72"><path d="m91.511719 205.8125-26.402344-26.402344c32.320313-32.320312 75.296875-50.121094 121.007813-50.121094 45.710937 0 88.6875 17.800782 121.007812 50.121094l-26.402344 26.402344c-25.269531-25.269531-58.867187-39.1875-94.605468-39.1875-35.734376 0-69.335938 13.917969-94.605469 39.1875zm0 0"/><path d="m236.722656 262.265625c-13.515625-13.519531-31.488281-20.960937-50.605468-20.960937-19.113282 0-37.085938 7.441406-50.601563 20.960937l-26.402344-26.402344c20.570313-20.570312 47.917969-31.898437 77.003907-31.898437 29.089843 0 56.4375 11.328125 77.007812 31.894531zm0 0"/><path d="m200.828125 310.605469c-3.773437 3.773437-8.988281 5.613281-14.320313 5.382812-.136718-.007812-.265624-.007812-.386718-.007812s-.25 0-.390625.007812c-5.332031.230469-10.546875-1.609375-14.320313-5.382812l-.269531-.269531c-11.261719-11.261719-4-30.5625 11.894531-31.59375 1.019532-.066407 2.050782-.101563 3.085938-.101563s2.0625.035156 3.085937.101563c15.894531 1.03125 23.15625 20.328124 11.890625 31.59375zm0 0"/></g><path d="m238.070312 163.246094c-15.148437 15.148437-15.148437 39.707031 0 54.855468l58.535157 58.539063c-5.140625 3.785156-9.980469 8.175781-14.414063 13.175781-29.652344 33.476563-29.125 89.390625 1.132813 122.324219 35.132812 38.234375 94.445312 39.484375 131.160156 3.75 18.304687-17.816406 27.351563-41.484375 27.324219-65.222656-.03125-23.839844-9.207032-47.753907-27.347656-65.890625l-121.53125-121.53125c-15.148438-15.152344-39.710938-15.152344-54.859376 0zm0 0" fill="#ffc994"/><path d="m296.605469 276.644531-58.535157-58.546875c-7.574218-7.574218-11.363281-17.5-11.363281-27.425781s3.789063-19.851563 11.363281-27.425781c-1.175781 1.175781-1.730468 2.863281-1.730468 4.953125 0 7.605469 7.40625 20.449219 19.292968 32.335937l40.972657 40.980469c9.699219 9.699219 9.699219 25.425781 0 35.128906zm0 0" fill="#dd9f68"/><path d="m415.492188 414.886719c-.324219.347656-.671876.671875-1.007813 1.007812-27.542969 26.800781-67.789063 50.449219-101.011719 35.636719-11.074218-4.9375-21.367187-29.832031-30.148437-39.390625-30.261719-32.9375-30.785157-88.847656-1.132813-122.316406 1.164063-1.3125 2.347656-2.59375 3.578125-3.820313-.640625.660156-1.261719 1.355469-1.847656 2.089844-16.023437 19.839844-3.535156 63.789062 27.300781 96.148438 35.796875 37.570312 82.570313 51.355468 103.640625 31.265624.207031-.199218.417969-.410156.628907-.621093zm0 0" fill="#dd9f68"/></svg>