<svg height="511pt" viewBox="-19 1 511 511.99896" width="511pt" xmlns="http://www.w3.org/2000/svg"><g fill="#273c47"><path d="m343.179688 147.09375h-28.902344v-95.585938h28.902344c8.703124 0 15.761718 7.058594 15.761718 15.765626v64.058593c0 8.703125-7.058594 15.761719-15.761718 15.761719zm0 0"/><path d="m16.265625 115.507812h28.195313v-64h-28.195313c-8.707031 0-15.765625 7.058594-15.765625 15.765626v32.472656c0 8.703125 7.058594 15.761718 15.765625 15.761718zm0 0"/><path d="m16.265625 197.207031h28.535156v-64h-28.535156c-8.707031 0-15.765625 7.058594-15.765625 15.765625v32.472656c0 8.703126 7.058594 15.761719 15.765625 15.761719zm0 0"/></g><path d="m313.746094 0h-268.046875c-18.511719 0-33.523438 15.007812-33.523438 33.523438v444.953124c0 18.511719 15.011719 33.523438 33.523438 33.523438h268.046875c18.515625 0 33.523437-15.011719 33.523437-33.523438v-444.953124c0-18.515626-15.007812-33.523438-33.523437-33.523438zm0 0" fill="#405968"/><path d="m71.570312 512h-25.871093c-18.515625 0-33.523438-15.003906-33.523438-33.519531v-444.960938c0-18.515625 15.007813-33.519531 33.523438-33.519531h25.871093c-18.515624 0-33.519531 15.003906-33.519531 33.519531v444.960938c0 18.515625 15.003907 33.519531 33.519531 33.519531zm0 0" fill="#273c47"/><path d="m24.484375 51.511719h310.46875v389.027343h-310.46875zm0 0" fill="#6adbbd"/><path d="m24.484375 51.511719h13.5625v389.027343h-13.5625zm0 0" fill="#4fbf9f"/><path d="m321.390625 51.511719h13.5625v389.027343h-13.5625zm0 0" fill="#a6f7e0"/><path d="m205.59375 34.421875h-51.742188c-4.328124 0-7.835937-3.507813-7.835937-7.835937 0-4.328126 3.507813-7.835938 7.835937-7.835938h51.742188c4.328125 0 7.835938 3.507812 7.835938 7.835938 0 4.328124-3.507813 7.835937-7.835938 7.835937zm0 0" fill="#273c47"/><path d="m205.59375 481.96875h-51.742188c-4.328124 0-7.835937-3.507812-7.835937-7.835938 0-4.328124 3.507813-7.835937 7.835937-7.835937h51.742188c4.328125 0 7.835938 3.507813 7.835938 7.835937 0 4.328126-3.507813 7.835938-7.835938 7.835938zm0 0" fill="#273c47"/><path d="m190.464844 401.871094h229.828125c11.363281 0 20.574219-9.210938 20.574219-20.570313v-172.785156c0-11.363281-9.210938-20.570313-20.574219-20.570313h-187.144531c-3.6875 0-7.222657 1.464844-9.832032 4.070313l-49.355468 49.355469c-2.605469 2.605468-4.070313 6.140625-4.070313 9.828125v130.101562c.003906 11.359375 9.210937 20.570313 20.574219 20.570313zm0 0" fill="#4fbf9f"/><path d="m223.144531 401.871094h229.832031c11.359376 0 20.570313-9.210938 20.570313-20.570313v-172.785156c0-11.363281-9.210937-20.570313-20.570313-20.570313h-187.148437c-3.6875 0-7.222656 1.464844-9.828125 4.070313l-49.355469 49.355469c-2.609375 2.605468-4.074219 6.140625-4.074219 9.828125v130.101562c.003907 11.359375 9.210938 20.570313 20.574219 20.570313zm0 0" fill="#ef5e72"/><path d="m318.675781 342.394531h99.699219c9.414062 0 17.042969-7.628906 17.042969-17.042969v-60.890624c0-9.414063-7.628907-17.042969-17.042969-17.042969h-99.699219c-9.410156 0-17.042969 7.628906-17.042969 17.042969v60.890624c0 9.414063 7.632813 17.042969 17.042969 17.042969zm0 0" fill="#f7e352"/><path d="m418.375 350.230469h-99.699219c-13.71875 0-24.878906-11.160157-24.878906-24.878907v-60.890624c0-13.71875 11.160156-24.878907 24.878906-24.878907h99.699219c13.71875 0 24.878906 11.160157 24.878906 24.878907v60.890624c0 13.71875-11.160156 24.878907-24.878906 24.878907zm-99.699219-94.976563c-5.074219 0-9.207031 4.132813-9.207031 9.207032v60.890624c0 5.078126 4.128906 9.207032 9.207031 9.207032h99.699219c5.078125 0 9.207031-4.128906 9.207031-9.207032v-60.890624c0-5.074219-4.128906-9.207032-9.207031-9.207032zm0 0" fill="#f4be53"/><path d="m385.546875 350.230469c-4.328125 0-7.835937-3.507813-7.835937-7.835938v-94.976562c0-4.328125 3.507812-7.835938 7.835937-7.835938s7.835937 3.507813 7.835937 7.835938v94.976562c0 4.328125-3.507812 7.835938-7.835937 7.835938zm0 0" fill="#f4be53"/><path d="m385.546875 319.765625h-83.914063c-4.328124 0-7.835937-3.511719-7.835937-7.839844v-34.039062c0-4.328125 3.507813-7.835938 7.835937-7.835938h83.914063c4.328125 0 7.835937 3.507813 7.835937 7.835938v34.039062c0 4.328125-3.507812 7.839844-7.835937 7.839844zm-76.074219-15.675781h68.238282v-18.367188h-68.238282zm0 0" fill="#f4be53"/></svg>